<?xml version="1.0" ?><!DOCTYPE svg  PUBLIC '-//W3C//DTD SVG 1.1//EN'  'http://www.w3.org/Graphics/SVG/1.1/DTD/svg11.dtd'><svg enable-background="new 0 0 100 100" height="100px" version="1.1" viewBox="0 0 100 100" width="100px" xml:space="preserve" xmlns="http://www.w3.org/2000/svg" xmlns:xlink="http://www.w3.org/1999/xlink"><g id="Amazon_CloudSearch"><g><defs><path d="M27.441,31.227v2.518c0-1.764-0.338-3.438-0.967-4.979v-2.514C27.104,27.795,27.441,29.465,27.441,31.227     z" id="SVGID_15_"/></defs><clipPath id="SVGID_2_"/><g clip-path="url(#SVGID_2_)"><path d="M27.441,31.227v2.518c0-1.764-0.338-3.438-0.967-4.979v-2.514C27.104,27.795,27.441,29.465,27.441,31.227     " fill="#876929"/></g></g><g><path d="M14.18,21.807c5.129,0,9.281,4.135,9.281,9.227c0,5.094-4.152,9.215-9.281,9.215    c-5.133,0-9.297-4.121-9.297-9.215C4.883,25.941,9.047,21.807,14.18,21.807z" fill="#EA2227"/></g><g enable-background="new    "><defs><path d="M23.461,31.033v2.516c0,5.09-4.152,9.213-9.281,9.213     c-5.133,0-9.297-4.123-9.297-9.213v-2.516c0,5.094,4.164,9.215,9.297,9.215C19.309,40.248,23.461,36.127,23.461,31.033z" enable-background="new    " id="SVGID_17_"/></defs><clipPath id="SVGID_4_"/><g clip-path="url(#SVGID_4_)" enable-background="new    "><path d="M23.461,31.033v2.516c0,0.447-0.033,0.891-0.096,1.32v-2.516C23.428,31.924,23.461,31.482,23.461,31.033" fill="#8D090A"/><path d="M23.365,32.354v2.516c-0.074,0.508-0.188,1.006-0.346,1.486v-2.514     C23.178,33.359,23.291,32.863,23.365,32.354" fill="#8D090A"/><path d="M23.163,33.304l-0.144,3.052c-0.18,0.562-0.412,1.107-0.695,1.619v-2.516     c0.283-0.514,0.516-1.051,0.695-1.617" fill="#8D090A"/><path d="M22.538,34.804l-0.214,3.171c-1.578,2.855-4.631,4.787-8.145,4.787c-5.133,0-9.297-4.123-9.297-9.213     v-2.516c0,5.094,4.164,9.215,9.297,9.215c3.514,0,6.566-1.934,8.145-4.789" fill="#8D090A"/></g></g><g><path d="M95.117,26.252v15.109H22.729c2.887-2.434,4.713-6.064,4.713-10.135c0-1.762-0.338-3.432-0.967-4.975    H95.117z" fill="#D9A741"/></g><g><rect fill="#876929" height="2.518" width="72.389" x="22.729" y="41.361"/></g><g><path d="M12.713,45.604h82.404v12.607H12.713V45.604z M92.438,55.555v-7.297H15.391v7.297H92.438" fill="#D9A741"/></g><g><rect fill="#876929" height="2.516" width="82.404" x="12.713" y="58.211"/></g><g><path d="M12.713,63.068h82.404V75.68H12.713V63.068z M92.438,73.023v-7.297H15.391v7.297H92.438" fill="#D9A741"/></g><g><rect fill="#876929" height="2.514" width="82.404" x="12.713" y="75.68"/></g><g><path d="M43.564,29.191h2.086v3.934h2.439v-3.934h2.088v10.283H48.09V34.91H45.65v4.564h-2.086V29.191z" fill="#FFFFFF"/><path d="M57.689,29.191v1.699h-2.262v8.584H53.34v-8.584h-2.262v-1.699H57.689z" fill="#FFFFFF"/><path d="M64.654,29.191v1.699h-2.264v8.584h-2.086v-8.584h-2.264v-1.699H64.654z" fill="#FFFFFF"/><path d="M65.559,29.191h3.654c2.115,0,2.84,1.543,2.84,3.084c0,2.131-1.318,3.096-3.291,3.096h-1.117v4.104h-2.086    V29.191z M67.645,33.844h0.928c0.828,0,1.393-0.492,1.393-1.541c0-1.008-0.404-1.582-1.449-1.582h-0.871V33.844z" fill="#FFFFFF"/></g></g></svg>