<?xml version="1.0" ?><!DOCTYPE svg  PUBLIC '-//W3C//DTD SVG 1.1//EN'  'http://www.w3.org/Graphics/SVG/1.1/DTD/svg11.dtd'><svg enable-background="new 0 0 100 100" height="100px" version="1.1" viewBox="0 0 100 100" width="100px" xml:space="preserve" xmlns="http://www.w3.org/2000/svg" xmlns:xlink="http://www.w3.org/1999/xlink"><g id="Amazon_CloudSearch"><g><g><rect fill="#D9A741" height="53.686" width="53.758" x="23.121" y="21.896"/></g><g><rect fill="#876929" height="2.523" width="53.758" x="23.121" y="75.581"/></g><path d="M73.07,53.663v-9.438h-3.604c-0.504-1.885-1.566-4.459-3.074-6.686l2.533-2.105l-5.506-5.27l-2.641,2.619    c-2.248-1.5-4.463-2.455-7.689-2.955v-4.1h-8.17v4.197c-1.898,0.52-4.535,1.504-6.6,2.855l-2.277-2.41l-5.432,5.473l2.406,1.533    c-1.562,2.264-2.635,4.963-3.15,6.848h-2.986v9.438h3.072c0.537,2.455,1.568,4.924,2.988,7.023l-2.533,2.51l5.502,5.465    l2.24-2.523c2.107,1.408,4.871,2.424,6.77,2.959v3.254h8.17v-3.156c3.227-0.512,5.566-1.615,7.854-3.174l2.703,2.629l5.529-5.467    l-2.689-2.662c1.367-2.061,2.371-5.725,2.895-6.855l3.738-0.029L73.07,53.663z M49.553,63.315    c-7.465-0.057-13.73-6.232-13.904-13.596c-0.184-7.834,6.668-14.156,14.016-14.17c7.891-0.02,14.383,6.354,14.287,14.195    C63.855,57.308,57.473,63.372,49.553,63.315" fill="#FFFFFF"/><path d="M57.842,49.04c0,4.307-3.514,7.795-7.844,7.795s-7.842-3.488-7.842-7.795s3.512-7.793,7.842-7.793    C54.328,41.245,57.842,44.733,57.842,49.04" fill="#FFFFFF"/></g></g></svg>